<svg id="Layer_1" data-name="Layer 1" xmlns="http://www.w3.org/2000/svg" width="0.2in" height="0.3in" viewBox="0 0 13.8 24.1"><title>preggers</title><path d="M12.2,24v-.2a24.5,24.5,0,0,0,1.5-6.5,15.4,15.4,0,0,0-.3-4.8,8.4,8.4,0,0,0-2.3-4h-.3l-1.5.2a19.7,19.7,0,0,1-6.4-.2H2.5l-1,.8A7,7,0,0,0,.1,13a16.7,16.7,0,0,0,.2,5,39.5,39.5,0,0,0,1.6,5.9c0,.1.1.2.3.2h10ZM2.3,0c0,1.2,0,2.4.1,3.6a.7.7,0,0,1-.1.6,2.1,2.1,0,0,0-.6,1.9A1.6,1.6,0,0,0,2.8,7.4l1.7.4a15.1,15.1,0,0,0,5.2-.1,4.3,4.3,0,0,0,1.6-.5,1.5,1.5,0,0,0,.8-1.6,2.2,2.2,0,0,0-.6-1.5c-.1-.2-.2-.3-.1-.5s.1-2.4.1-3.5h-.8c0,.3.1.5.1.8l-.3,3.5a.5.5,0,0,1-.5.5L9,5a16.1,16.1,0,0,1-3.8.1L3.7,4.8c-.2-.1-.4-.2-.4-.5a18,18,0,0,0-.2-2.2A7.4,7.4,0,0,1,3.1,0Z" fill="#fff"/><path d="M12.2,24H2.2c-.2,0-.3-.1-.3-.2A39.5,39.5,0,0,1,.3,18a16.7,16.7,0,0,1-.2-5A7,7,0,0,1,1.5,9.3l1-.8h.4a19.7,19.7,0,0,0,6.4.2l1.5-.2h.3a8.4,8.4,0,0,1,2.3,4,15.4,15.4,0,0,1,.3,4.8,24.5,24.5,0,0,1-1.5,6.5ZM11,13.3a4,4,0,0,0-7.9,0,4,4,0,0,0,3.9,4A4,4,0,0,0,11,13.3Z"/><path d="M2.3,0h.8a7.4,7.4,0,0,0,0,2.1,18,18,0,0,1,.2,2.2c0,.3.2.4.4.5l1.5.3A16.1,16.1,0,0,0,9,5l1-.2a.5.5,0,0,0,.5-.5L10.8.8c0-.3-.1-.5-.1-.8h.8c0,1.1,0,2.3-.1,3.5s0,.3.1.5a2.2,2.2,0,0,1,.6,1.5,1.5,1.5,0,0,1-.8,1.6,4.3,4.3,0,0,1-1.6.5,15.1,15.1,0,0,1-5.2.1L2.8,7.4A1.6,1.6,0,0,1,1.7,6.1a2.1,2.1,0,0,1,.6-1.9.7.7,0,0,0,.1-.6C2.3,2.4,2.3,1.2,2.3,0Z"/><path d="M11,13.3a4,4,0,0,1-4,4A4,4,0,0,1,7,9.4,4,4,0,0,1,11,13.3Zm-2.5.2a.8.8,0,0,1,.8-.2h.2c.1-.4.3-.7.2-1.1A1.3,1.3,0,0,0,8,11a1.8,1.8,0,0,0-1,.4A1.6,1.6,0,0,0,5.5,11a1.4,1.4,0,0,0-1.1,1.8l.6,1a9.3,9.3,0,0,0,1.4,1.4c.6.5.6.5,1.3,0h0l-.4-.5a.8.8,0,0,1-.2-.5.7.7,0,0,1,.4-.9A.9.9,0,0,1,8.5,13.5Zm0,.2h0a.9.9,0,0,0-1,0,.6.6,0,0,0,0,.8,2.7,2.7,0,0,0,1,1.1l.8-.7a1.1,1.1,0,0,0,.3-.6.5.5,0,0,0-.4-.8Z" fill="#fff"/><path d="M8.5,13.5a.9.9,0,0,0-1-.2.7.7,0,0,0-.4.9.8.8,0,0,0,.2.5l.4.5h0c-.7.5-.7.5-1.3,0A9.3,9.3,0,0,1,5,13.8l-.6-1A1.4,1.4,0,0,1,5.5,11a1.6,1.6,0,0,1,1.5.4A1.8,1.8,0,0,1,8,11a1.3,1.3,0,0,1,1.7,1.1c.1.4-.1.7-.2,1.1H9.3A.8.8,0,0,0,8.5,13.5Z"/><path d="M8.5,13.7l.7-.2a.5.5,0,0,1,.4.8,1.1,1.1,0,0,1-.3.6l-.8.7a2.7,2.7,0,0,1-1-1.1.6.6,0,0,1,0-.8.9.9,0,0,1,1,0Z"/></svg>