<svg enable-background="new 0 0 64 64" viewBox="0 0 64 80" xmlns="http://www.w3.org/2000/svg"><path d="m7 15v46c0 .553.448 1 1 1h48c.552 0 1-.447 1-1v-46-12c0-.553-.448-1-1-1h-48c-.552 0-1 .447-1 1zm2 45v-44h46v44zm0-56h46v10h-46z"/><path d="m16 6c-1.654 0-3 1.346-3 3s1.346 3 3 3 3-1.346 3-3-1.346-3-3-3zm0 4c-.551 0-1-.448-1-1s.449-1 1-1 1 .448 1 1-.449 1-1 1z"/><path d="m48 6c-1.654 0-3 1.346-3 3s1.346 3 3 3 3-1.346 3-3-1.346-3-3-3zm0 4c-.551 0-1-.448-1-1s.449-1 1-1 1 .448 1 1-.449 1-1 1z"/><path d="m40 5h-16c-.552 0-1 .447-1 1v6c0 .553.448 1 1 1h16c.552 0 1-.447 1-1v-6c0-.553-.448-1-1-1zm-1 6h-14v-4h14z"/><path d="m18 23h28c.552 0 1-.447 1-1v-3c0-.553-.448-1-1-1h-28c-.552 0-1 .447-1 1v3c0 .553.448 1 1 1zm1-3h26v1h-26z"/><path d="m52 25h-40c-.552 0-1 .447-1 1v31c0 .553.448 1 1 1h40c.552 0 1-.447 1-1v-31c0-.553-.448-1-1-1zm-35.586 25h6.172l-2 2h-6.172zm9 0h5.586v2h-7.586zm7.586 0h5.586l2 2h-7.586zm10.414 2-2-2h6.172l2 2zm3.293-5.707-1.414 1.414.293.293h-6.172l-1.707-1.707-1.414 1.414.293.293h-3.586v-1h-2v1h-3.586l.293-.293-1.414-1.414-1.707 1.707h-6.172l.293-.293-1.414-1.414-4.293 4.293v-11.586h38v11.586zm-30.293-11.293h6.172l-2 2h-6.172zm33.172 2h-6.172l-2-2h6.172zm-9 0h-7.586v-2h5.586zm-9.586 0h-7.586l2-2h5.586zm20-10v8.586l-4.293-4.293-1.414 1.414.293.293h-6.172l-1.707-1.707-1.414 1.414.293.293h-3.586v-1h-2v1h-3.586l.293-.293-1.414-1.414-1.707 1.707h-6.172l.293-.293-1.414-1.414-4.293 4.293v-8.586zm-38 29v-2h38v2z"/><g font-family="'Helvetica Neue', Helvetica, Arial-Unicode, Arial, Sans-serif" font-size="5" font-weight="bold"><text y="79">Created by dDara</text><text y="84">from the Noun Project</text></g></svg>